# xmcd CD database file
#
# Track frame offsets:
#	150
#	29987
#	52382
#	73217
#	93425
#	109237
#	136667
#	153610
#	181745
#
# Disc length: 2538 seconds
#
# Revision: 4
# Processed by: cddbd v1.5.2PL0 Copyright (c) Steve Scherf et al.
# Submitted via: CDex 1.51
#
DISCID=8609e809
DTITLE=Roy Buchanan - When A Guitar Plays The Blues
DYEAR=1985
DGENRE=Blues
TTITLE0=When A Guitar Plays The Blues
TTITLE1=Chicago Smokeshop
TTITLE2=Mrs. Pressure
TTITLE3=A Nickel And A Nail
TTITLE4=Short Fuse
TTITLE5=Why Don't You Want Me?
TTITLE6=Country Boy
TTITLE7=Sneaking Godzilla Through The Alley
TTITLE8=Hawaiian Punch
EXTD=YEAR: 1985
EXTT0=
EXTT1=
EXTT2=
EXTT3=
EXTT4=
EXTT5=
EXTT6=
EXTT7=
EXTT8=
PLAYORDER=
